HIERARCHY
ROOT Hips
{
  OFFSET 54.2319 95.7225 13.339
  CHANNELS 6 Xposition Yposition Zposition Zrotation Xrotation Yrotation
  JOINT spine
  {
    OFFSET 0 7.96568 0.458067
    CHANNELS 3 Zrotation Xrotation Yrotation
    JOINT spine1
    {
      OFFSET 0 10.2431 0
      CHANNELS 3 Zrotation Xrotation Yrotation
      JOINT spine2
      {
        OFFSET 0 9.81475 0
        CHANNELS 3 Zrotation Xrotation Yrotation
        JOINT Neck
        {
          OFFSET 0 25.1986 1.20138
          CHANNELS 3 Zrotation Xrotation Yrotation
          JOINT Head
          {
            OFFSET 0 7.61315 0
            CHANNELS 3 Zrotation Xrotation Yrotation
            End Site
            {
              OFFSET 0 18.4281 -6.07733
            }
          }
        }
        JOINT RightShoulder
        {
          OFFSET -4.1327 10.5992 -0.575451
          CHANNELS 3 Zrotation Xrotation Yrotation
          JOINT RightArm
          {
            OFFSET 0 13.9018 0
            CHANNELS 3 Zrotation Xrotation Yrotation
            JOINT RightArmRoll
            {
              OFFSET 0 7.01789 0
              CHANNELS 3 Zrotation Xrotation Yrotation
              JOINT RightForeArm
              {
                OFFSET 0 20.4406 0
                CHANNELS 3 Zrotation Xrotation Yrotation
                JOINT RightForeArmRoll
                {
                  OFFSET 0 7.87515 0
                  CHANNELS 3 Zrotation Xrotation Yrotation
                  JOINT RightHand
                  {
                    OFFSET 0 15.8037 0
                    CHANNELS 3 Zrotation Xrotation Yrotation
                    End Site
                    {
                      OFFSET 0 0 0
                    }
                  }
                }
              }
            }
          }
        }
        JOINT LeftShoulder
        {
          OFFSET 4.1327 10.5992 -0.575451
          CHANNELS 3 Zrotation Xrotation Yrotation
          JOINT LeftArm
          {
            OFFSET 0 13.9018 0
            CHANNELS 3 Zrotation Xrotation Yrotation
            JOINT LeftArmRoll
            {
              OFFSET 0 7.01789 0
              CHANNELS 3 Zrotation Xrotation Yrotation
              JOINT LeftForeArm
              {
                OFFSET 0 20.4406 0
                CHANNELS 3 Zrotation Xrotation Yrotation
                JOINT LeftForeArmRoll
                {
                  OFFSET 0 7.87515 0
                  CHANNELS 3 Zrotation Xrotation Yrotation
                  JOINT LeftHand
                  {
                    OFFSET 0 15.8037 0
                    CHANNELS 3 Zrotation Xrotation Yrotation
                    End Site
                    {
                      OFFSET 0 0 0
                    }
                  }
                }
              }
            }
          }
        }
      }
    }
  }
  JOINT RightUpLeg
  {
    OFFSET -7.06048 -1.2947 -1.0861
    CHANNELS 3 Zrotation Xrotation Yrotation
    JOINT RightUpLegRoll
    {
      OFFSET 0 18.5308 0
      CHANNELS 3 Zrotation Xrotation Yrotation
      JOINT RightLeg
      {
        OFFSET 0 -22.9476 0
        CHANNELS 3 Zrotation Xrotation Yrotation
        JOINT RightLegRoll
        {
          OFFSET 0 23.0226 0
          CHANNELS 3 Zrotation Xrotation Yrotation
          JOINT RightFoot
          {
            OFFSET 0 19.1625 0
            CHANNELS 3 Zrotation Xrotation Yrotation
            JOINT RightToeBase
            {
              OFFSET 0 16.0188 0
              CHANNELS 3 Zrotation Xrotation Yrotation
              End Site
              {
                OFFSET 0.00678979 7.75782 -0.894207
              }
            }
          }
        }
      }
    }
  }
  JOINT LeftUpLeg
  {
    OFFSET 7.06048 -1.2947 -1.0861
    CHANNELS 3 Zrotation Xrotation Yrotation
    JOINT LeftUpLegRoll
    {
      OFFSET 0 18.5309 0
      CHANNELS 3 Zrotation Xrotation Yrotation
      JOINT LeftLeg
      {
        OFFSET 0 22.9475 0
        CHANNELS 3 Zrotation Xrotation Yrotation
        JOINT LeftLegRoll
        {
          OFFSET 0 23.2355 0
          CHANNELS 3 Zrotation Xrotation Yrotation
          JOINT LeftFoot
          {
            OFFSET 0 18.9496 0
            CHANNELS 3 Zrotation Xrotation Yrotation
            JOINT LeftToeBase
            {
              OFFSET 0 16.0188 0
              CHANNELS 3 Zrotation Xrotation Yrotation
              End Site
              {
                OFFSET -0.0304289 7.75782 -0.894206
              }
            }
          }
        }
      }
    }
  }
}
MOTION
Frames: 6
Frame Time: 0.00208333
53.7645 95.6601 12.9449 0.47984 0.528134 1.59368 -0.395883 -2.63538 0.194578 -0.791175 -1.27109 0.419581 -0.796174 0.373874 0.432784 18.8309 27.2974 -7.43739 -11.2102 -3.93369 -1.65238 20.308 -15.1749 -12.5763 -8.9959 39.1536 102.548 -6.88075e-006 2.70199e-006 -5.40628e-007 -18.1571 51.0384 19.9759 -5.3833e-006 -5.99311e-006 -3.00901 8.03007 -4.95137 0.697625 -74.1317 3.36213 0.303368 -99.1643 18.15 -23.507 5.93118e-006 5.43863e-007 4.11959e-006 0.0603444 7.94378 -0.628625 -7.25252e-006 -4.8924e-006 3.0081 -8.03025 -4.95135 -0.697645 174.761 -0.576355 -1.85306 180 7.01535e-015 178.871 177.904 5.31123 179.588 -7.01402e-008 2.85013e-007 0.0978744 -19.8086 69.1943 20.5925 8.15192 25.479 -3.15702 -175.182 0.585593 1.41555 4.54188e-006 -4.6773e-006 -1.09076 -1.94012 -3.95755 0.0697366 -3.51941e-006 -4.47016e-006 -0.0392173 18.7698 68.4541 -19.9148 -8.13649 25.2327 3.48774 
53.7668 95.6633 12.9455 0.477515 0.527776 1.59283 -0.395837 -2.63531 0.194651 -0.790186 -1.27078 0.419998 -0.795183 0.374187 0.433196 18.792 27.304 -7.42121 -11.1916 -3.93578 -1.64811 20.3079 -15.1578 -12.5544 -8.93843 39.1619 102.498 -6.88075e-006 2.70199e-006 -5.40628e-007 -18.1458 51.0237 19.9641 -5.3833e-006 -5.99311e-006 -3.009 8.03007 -4.95137 0.697625 -74.1514 3.35057 0.311264 -99.1326 18.1636 -23.5197 5.93118e-006 5.43863e-007 4.11959e-006 0.0654025 7.96047 -0.629887 -7.25252e-006 -4.8924e-006 3.0081 -8.03025 -4.95135 -0.697645 174.761 -0.572233 -1.85611 180 7.01535e-015 178.871 177.909 5.31975 179.588 -7.01402e-008 2.85013e-007 0.0980748 -19.8153 69.2014 20.5997 8.15184 25.4779 -3.15841 -175.18 0.595197 1.41466 4.54188e-006 -4.6773e-006 -1.09068 -1.94128 -3.97299 0.0689191 -3.51941e-006 -4.47016e-006 -0.0391964 18.7675 68.4575 -19.9189 -8.13649 25.2327 3.48774 
53.7733 95.6622 12.943 0.475069 0.527059 1.59199 -0.395778 -2.63511 0.194727 -0.789131 -1.27023 0.420418 -0.794127 0.374739 0.433611 18.7524 27.3099 -7.4047 -11.1727 -3.93716 -1.64383 20.31 -15.1402 -12.5317 -8.87611 39.1701 102.445 -6.88075e-006 2.70199e-006 -5.40628e-007 -18.134 51.008 19.9514 -5.3833e-006 -5.9931e-006 -3.00899 8.03007 -4.95137 0.697625 -74.1705 3.33873 0.319178 -99.1019 18.1775 -23.5325 5.93118e-006 5.43863e-007 4.11959e-006 0.0706879 7.97106 -0.631023 -7.25252e-006 -4.8924e-006 3.0081 -8.03025 -4.95135 -0.697645 174.761 -0.569188 -1.85906 180 7.01535e-015 178.871 177.914 5.32671 179.588 -7.01402e-008 2.85013e-007 0.0982505 -19.8211 69.2076 20.6059 8.15178 25.4769 -3.15969 -175.179 0.603922 1.41337 4.54188e-006 -4.6773e-006 -1.0906 -1.94281 -3.9874 0.0681 -3.51941e-006 -4.47016e-006 -0.0391756 18.7654 68.4606 -19.9228 -8.13649 25.2327 3.48774 
53.7727 95.6843 12.9434 0.472542 0.526029 1.59122 -0.395711 -2.63481 0.19481 -0.788039 -1.26945 0.42085 -0.793034 0.375512 0.434035 18.7124 27.3151 -7.38804 -11.1539 -3.93807 -1.63962 20.315 -15.1224 -12.5084 -8.80916 39.1779 102.387 -6.88075e-006 2.70199e-006 -5.40628e-007 -18.1216 50.9913 19.9375 -5.3833e-006 -5.9931e-006 -3.00898 8.03007 -4.95137 0.697625 -74.1885 3.32675 0.327018 -99.0722 18.1916 -23.5452 5.93118e-006 5.43863e-007 4.11959e-006 0.076141 7.97513 -0.63201 -7.25252e-006 -4.8924e-006 3.0081 -8.03025 -4.95135 -0.697645 174.761 -0.567284 -1.86183 180 7.01535e-015 178.871 177.918 5.33182 179.588 -7.01402e-008 2.85013e-007 0.0983992 -19.8257 69.2125 20.6109 8.15172 25.476 -3.16082 -175.177 0.611613 1.41171 4.54188e-006 -4.6773e-006 -1.09052 -1.94469 -4.00041 0.067293 -3.51941e-006 -4.47016e-006 -0.0391549 18.7635 68.4632 -19.9262 -8.13649 25.2327 3.48774 
53.7793 95.6806 12.9411 0.46997 0.524733 1.5906 -0.395642 -2.63438 0.194906 -0.786935 -1.26848 0.421299 -0.791931 0.376487 0.434476 18.6725 27.3196 -7.37146 -11.1354 -3.93872 -1.63556 20.3232 -15.1043 -12.4844 -8.73778 39.1851 102.324 -6.88075e-006 2.70199e-006 -5.40628e-007 -18.1085 50.9737 19.9223 -5.3833e-006 -5.9931e-006 -3.00897 8.03007 -4.95137 0.697625 -74.2055 3.31478 0.334691 -99.0436 18.2058 -23.5579 5.93118e-006 5.43863e-007 4.11959e-006 0.081702 7.97225 -0.632826 -7.25252e-006 -4.8924e-006 3.00809 -8.03025 -4.95135 -0.697645 174.761 -0.566583 -1.86432 180 7.01535e-015 178.871 177.923 5.33478 179.588 -7.01402e-008 2.85013e-007 0.0985188 -19.8288 69.2158 20.6143 8.15166 25.4753 -3.16176 -175.176 0.618109 1.40974 4.54188e-006 -4.6773e-006 -1.09044 -1.94691 -4.01161 0.0665118 -3.51941e-006 -4.47016e-006 -0.0391343 18.7618 68.4653 -19.9291 -8.13649 25.2327 3.48774 
53.7873 95.666 12.9346 0.467391 0.523219 1.59019 -0.395577 -2.63385 0.195021 -0.785847 -1.26732 0.421773 -0.790844 0.377648 0.434942 18.6332 27.3234 -7.35516 -11.1172 -3.93931 -1.63172 20.3352 -15.086 -12.4599 -8.6622 39.1917 102.256 -6.88075e-006 2.70199e-006 -5.40628e-007 -18.0944 50.9553 19.9055 -5.3833e-006 -5.9931e-006 -3.00897 8.03007 -4.95137 0.697625 -74.2211 3.30298 0.342103 -99.0165 18.2199 -23.5704 5.93118e-006 5.43863e-007 4.11959e-006 0.0873113 7.96199 -0.633448 -7.25252e-006 -4.8924e-006 3.00809 -8.03025 -4.95135 -0.697645 174.761 -0.56715 -1.86645 180 7.01535e-015 178.871 177.926 5.33528 179.588 -7.01402e-008 2.85013e-007 0.0986072 -19.8303 69.2174 20.6159 8.15163 25.4747 -3.16248 -175.174 0.623255 1.40749 4.54188e-006 -4.6773e-006 -1.09036 -1.94946 -4.02062 0.06577 -3.51941e-006 -4.47016e-006 -0.0391138 18.7603 68.4667 -19.9314 -8.13649 25.2327 3.48774 
